<svg width="35" height="36" viewBox="0 0 35 36" fill="none" xmlns="http://www.w3.org/2000/svg">
  <path d="M13.125 7.00416C14.5396 6.55472 16.0156 6.32839 17.5 6.33333C23.5987 6.33333 27.7491 9.97917 30.2239 13.1933C31.4635 14.8062 32.0833 15.6098 32.0833 18C32.0833 20.3917 31.4635 21.1952 30.2239 22.8067C27.7491 26.0208 23.5987 29.6667 17.5 29.6667C11.4012 29.6667 7.25079 26.0208 4.776 22.8067C3.53642 21.1967 2.91663 20.3902 2.91663 18C2.91663 15.6083 3.53642 14.8048 4.776 13.1933C5.53215 12.2058 6.37396 11.2869 7.29163 10.4473" stroke="#F8F8F8" stroke-width="1.5" stroke-linecap="round"/>
  <path d="M21.875 18C21.875 19.1603 21.4141 20.2731 20.5936 21.0936C19.7731 21.9141 18.6603 22.375 17.5 22.375C16.3397 22.375 15.2269 21.9141 14.4064 21.0936C13.5859 20.2731 13.125 19.1603 13.125 18C13.125 16.8397 13.5859 15.7269 14.4064 14.9064C15.2269 14.0859 16.3397 13.625 17.5 13.625C18.6603 13.625 19.7731 14.0859 20.5936 14.9064C21.4141 15.7269 21.875 16.8397 21.875 18Z" stroke="#F8F8F8" stroke-width="1.5"/>
</svg>
