<svg width="35" height="36" viewBox="0 0 35 36" fill="none" xmlns="http://www.w3.org/2000/svg">
  <path d="M30.0836 23.8317C29.9701 23.695 29.8587 23.5583 29.7493 23.4264C28.2454 21.6073 27.3356 20.5095 27.3356 15.36C27.3356 12.6939 26.6978 10.5064 25.4406 8.86582C24.5137 7.65381 23.2607 6.73438 21.6091 6.05488C21.5878 6.04306 21.5689 6.02755 21.553 6.00908C20.959 4.01982 19.3334 2.6875 17.5 2.6875C15.6666 2.6875 14.0417 4.01982 13.4477 6.00703C13.4318 6.02485 13.4131 6.03987 13.3923 6.05146C9.53819 7.63809 7.66515 10.6821 7.66515 15.3579C7.66515 20.5095 6.75665 21.6073 5.25138 23.4243C5.142 23.5562 5.03058 23.6902 4.9171 23.8297C4.62398 24.1832 4.43826 24.6133 4.38192 25.069C4.32559 25.5248 4.401 25.9871 4.59923 26.4014C5.02101 27.29 5.91993 27.8417 6.94601 27.8417H28.0615C29.0828 27.8417 29.9756 27.2907 30.3987 26.4062C30.5978 25.9918 30.674 25.5291 30.6181 25.0728C30.5622 24.6165 30.3767 24.1858 30.0836 23.8317ZM17.5 33.3125C18.4878 33.3117 19.457 33.0436 20.3048 32.5365C21.1525 32.0295 21.8472 31.3024 22.3152 30.4325C22.3373 30.3908 22.3482 30.3441 22.3469 30.297C22.3455 30.2499 22.332 30.2039 22.3077 30.1635C22.2833 30.1231 22.2489 30.0897 22.2079 30.0665C22.1668 30.0434 22.1204 30.0312 22.0733 30.0312H12.9281C12.8809 30.0311 12.8345 30.0431 12.7933 30.0663C12.7521 30.0894 12.7176 30.1228 12.6932 30.1632C12.6688 30.2036 12.6552 30.2496 12.6539 30.2968C12.6525 30.344 12.6634 30.3908 12.6855 30.4325C13.1534 31.3023 13.848 32.0293 14.6956 32.5363C15.5433 33.0434 16.5123 33.3116 17.5 33.3125Z" fill="#F8F8F8"/>
</svg>
